<?xml version="1.0" standalone="no"?><!DOCTYPE svg PUBLIC "-//W3C//DTD SVG 1.1//EN" "http://www.w3.org/Graphics/SVG/1.1/DTD/svg11.dtd"><svg t="1776489033695" class="icon" viewBox="0 0 1024 1024" version="1.1" xmlns="http://www.w3.org/2000/svg" p-id="1716" xmlns:xlink="http://www.w3.org/1999/xlink" width="200" height="200"><path d="M504.832 681.52888889a9.10222222 9.10222222 0 0 0 14.336 0l127.43111111-161.22311111c4.66488889-5.91644445 0.45511111-14.67733333-7.168-14.67733333h-84.30933333V120.60444445c0-5.00622222-4.096-9.10222222-9.10222223-9.10222223h-68.26666666c-5.00622222 0-9.10222222 4.096-9.10222222 9.10222223v384.91022222H384.56888889c-7.62311111 0-11.83288889 8.76088889-7.168 14.67733333l127.43111111 161.33688889zM928.42666667 641.70666667h-68.26666667c-5.00622222 0-9.10222222 4.096-9.10222222 9.10222222v175.21777778H172.94222222V650.80888889c0-5.00622222-4.096-9.10222222-9.10222222-9.10222222h-68.26666667c-5.00622222 0-9.10222222 4.096-9.10222222 9.10222222v225.28c0 20.13866667 16.27022222 36.40888889 36.40888889 36.40888889h778.24c20.13866667 0 36.40888889-16.27022222 36.40888889-36.40888889V650.80888889c0-5.00622222-4.096-9.10222222-9.10222222-9.10222222z" p-id="1717"></path></svg>