<?xml version="1.0" standalone="no"?><!DOCTYPE svg PUBLIC "-//W3C//DTD SVG 1.1//EN" "http://www.w3.org/Graphics/SVG/1.1/DTD/svg11.dtd"><svg t="1776877542732" class="icon" viewBox="0 0 1024 1024" version="1.1" xmlns="http://www.w3.org/2000/svg" p-id="3711" xmlns:xlink="http://www.w3.org/1999/xlink" width="200" height="200"><path d="M832 96a128 128 0 0 1 128 128v384a128 128 0 0 1-128 128H560V832h224a48 48 0 0 1 0 96h-544a48 48 0 0 1 0-96h224v-96H192a128 128 0 0 1-128-128v-384a128 128 0 0 1 128-128h640zM832 192H192a32 32 0 0 0-32 32v384a32 32 0 0 0 32 32h640a32 32 0 0 0 32-32v-384A32 32 0 0 0 832 192z m-256 48c26.88 0 48 21.12 48 48s-21.12 48-48 48H448c-26.88 0-48-21.12-48-48s21.12-48 48-48h128z" p-id="3712"></path></svg>